<svg xmlns="http://www.w3.org/2000/svg" xmlns:xlink="http://www.w3.org/1999/xlink" width="40" zoomAndPan="magnify" viewBox="0 0 30 30.000001" height="40" preserveAspectRatio="xMidYMid meet" version="1.0"><defs><clipPath id="a5abbd5392"><path d="M 0.484375 3.566406 L 29.515625 3.566406 L 29.515625 25.339844 L 0.484375 25.339844 Z M 0.484375 3.566406 " clip-rule="nonzero"/></clipPath></defs><g clip-path="url(#a5abbd5392)"><path fill="#fece00" d="M 14.511719 4.429688 C 14.5625 4.203125 14.621094 3.890625 14.621094 3.59375 L 11.410156 3.59375 L 11.410156 3.574219 C 11.410156 3.566406 11.410156 3.566406 11.410156 3.566406 C 11.410156 3.566406 11.410156 3.566406 11.410156 3.574219 C 11.40625 3.59375 11.398438 3.652344 11.375 3.753906 C 11.339844 3.910156 11.289062 4.113281 11.21875 4.34375 C 11.082031 4.804688 10.902344 5.3125 10.746094 5.695312 C 9.875 7.828125 8.402344 9.640625 6.519531 10.914062 C 4.738281 12.117188 2.667969 12.789062 0.542969 12.859375 L 0.320312 12.859375 L 0.320312 16.042969 C 2.578125 16.042969 4.636719 16.71875 6.519531 17.992188 C 8.402344 19.265625 9.875 21.078125 10.746094 23.207031 C 10.902344 23.59375 11.082031 24.101562 11.21875 24.5625 C 11.289062 24.792969 11.339844 24.992188 11.375 25.152344 C 11.398438 25.253906 11.40625 25.308594 11.410156 25.332031 C 11.410156 25.335938 11.410156 25.339844 11.410156 25.339844 C 11.410156 25.339844 11.410156 25.335938 11.410156 25.332031 C 11.410156 25.328125 11.410156 25.320312 11.410156 25.3125 L 14.621094 25.3125 C 14.621094 25.015625 14.5625 24.703125 14.511719 24.476562 C 14.457031 24.21875 14.382812 23.9375 14.296875 23.664062 C 14.132812 23.109375 13.921875 22.503906 13.722656 22.019531 C 12.757812 19.664062 11.214844 17.605469 9.238281 16.035156 L 29.683594 16.035156 L 29.683594 12.859375 L 9.25 12.859375 C 11.222656 11.289062 12.761719 9.234375 13.722656 6.886719 C 13.921875 6.398438 14.132812 5.792969 14.296875 5.242188 C 14.382812 4.964844 14.457031 4.683594 14.511719 4.429688 Z M 14.511719 4.429688 " fill-opacity="1" fill-rule="evenodd"/></g></svg>