<svg xmlns="http://www.w3.org/2000/svg" xmlns:xlink="http://www.w3.org/1999/xlink" width="40" zoomAndPan="magnify" viewBox="0 0 30 30.000001" height="40" preserveAspectRatio="xMidYMid meet" version="1.0"><defs><clipPath id="51ff58cd05"><path d="M 0.484375 0 L 29.515625 0 L 29.515625 29 L 0.484375 29 Z M 0.484375 0 " clip-rule="nonzero"/></clipPath></defs><g clip-path="url(#51ff58cd05)"><path fill="#fc8001" d="M 14.988281 28.75 C 23 28.75 29.492188 22.3125 29.492188 14.375 C 29.492188 6.4375 23 0 14.988281 0 C 6.976562 0 0.484375 6.4375 0.484375 14.375 C 0.484375 22.3125 6.976562 28.75 14.988281 28.75 Z M 14.988281 28.75 " fill-opacity="1" fill-rule="nonzero"/></g><path fill="#fdcc01" d="M 15.015625 0.800781 C 8.324219 0.800781 2.894531 6.179688 2.894531 12.8125 C 2.894531 13.457031 2.949219 14.09375 3.046875 14.710938 C 4.613281 10.65625 8.894531 7.738281 13.933594 7.738281 C 18.140625 7.738281 21.820312 9.773438 23.832031 12.804688 C 23.84375 12.804688 23.855469 12.804688 23.867188 12.804688 C 25.167969 12.804688 26.265625 13.214844 27.078125 13.914062 C 27.113281 13.550781 27.132812 13.179688 27.132812 12.808594 C 27.132812 6.175781 21.707031 0.800781 15.015625 0.800781 Z M 15.015625 0.800781 " fill-opacity="1" fill-rule="nonzero"/><path fill="#fd0024" d="M 27.082031 13.914062 C 26.265625 13.210938 25.171875 12.804688 23.871094 12.804688 C 23.855469 12.804688 23.847656 12.804688 23.832031 12.804688 C 20.269531 12.824219 16.515625 15.894531 15.441406 19.679688 C 14.871094 21.695312 15.171875 23.507812 16.117188 24.769531 C 15.753906 24.800781 15.390625 24.824219 15.015625 24.824219 C 8.976562 24.824219 3.96875 20.441406 3.050781 14.710938 C 2.636719 15.78125 2.410156 16.925781 2.410156 18.125 C 2.410156 21.0625 3.765625 23.710938 5.945312 25.601562 C 7.289062 26.664062 8.828125 27.5 10.5 28.039062 C 11.914062 28.496094 13.425781 28.746094 14.992188 28.746094 C 19.339844 28.746094 23.238281 26.84375 25.894531 23.84375 C 26.808594 22.804688 27.582031 21.644531 28.167969 20.375 C 28.257812 20.148438 28.332031 19.917969 28.398438 19.679688 C 29.082031 17.265625 28.507812 15.140625 27.082031 13.914062 Z M 27.082031 13.914062 " fill-opacity="1" fill-rule="nonzero"/></svg>