<svg xmlns="http://www.w3.org/2000/svg" xmlns:xlink="http://www.w3.org/1999/xlink" width="40" zoomAndPan="magnify" viewBox="0 0 30 30.000001" height="40" preserveAspectRatio="xMidYMid meet" version="1.0"><defs><clipPath id="95b21f29fe"><path d="M 0.484375 3.589844 L 29.515625 3.589844 L 29.515625 25.363281 L 0.484375 25.363281 Z M 0.484375 3.589844 " clip-rule="nonzero"/></clipPath></defs><g clip-path="url(#95b21f29fe)"><path fill="#fece00" d="M 15.546875 4.453125 C 15.496094 4.226562 15.4375 3.914062 15.4375 3.617188 L 18.648438 3.617188 L 18.648438 3.597656 C 18.648438 3.59375 18.648438 3.589844 18.648438 3.589844 C 18.648438 3.589844 18.648438 3.59375 18.648438 3.597656 C 18.652344 3.621094 18.660156 3.675781 18.683594 3.777344 C 18.71875 3.933594 18.773438 4.136719 18.839844 4.367188 C 18.976562 4.828125 19.15625 5.335938 19.316406 5.71875 C 20.1875 7.851562 21.65625 9.664062 23.539062 10.9375 C 25.316406 12.140625 27.386719 12.8125 29.511719 12.882812 L 29.734375 12.882812 L 29.734375 16.066406 C 27.480469 16.066406 25.421875 16.742188 23.539062 18.015625 C 21.65625 19.289062 20.1875 21.101562 19.316406 23.234375 C 19.15625 23.617188 18.976562 24.125 18.839844 24.585938 C 18.773438 24.816406 18.71875 25.019531 18.683594 25.175781 C 18.660156 25.277344 18.652344 25.332031 18.648438 25.355469 C 18.648438 25.359375 18.648438 25.363281 18.648438 25.363281 C 18.648438 25.363281 18.648438 25.359375 18.648438 25.355469 C 18.648438 25.351562 18.648438 25.34375 18.648438 25.335938 L 15.4375 25.335938 C 15.4375 25.039062 15.496094 24.726562 15.546875 24.5 C 15.605469 24.242188 15.679688 23.964844 15.761719 23.6875 C 15.925781 23.132812 16.140625 22.53125 16.339844 22.042969 C 17.300781 19.6875 18.847656 17.628906 20.824219 16.058594 L 0.382812 16.058594 L 0.382812 12.882812 L 20.808594 12.882812 C 18.839844 11.3125 17.300781 9.257812 16.339844 6.910156 C 16.140625 6.421875 15.925781 5.816406 15.761719 5.265625 C 15.679688 4.988281 15.605469 4.710938 15.546875 4.453125 Z M 15.546875 4.453125 " fill-opacity="1" fill-rule="evenodd"/></g></svg>